<svg version="1.1" id="Layer_1" xmlns="http://www.w3.org/2000/svg" xmlns:xlink="http://www.w3.org/1999/xlink" 
     width="0%" height="1%" viewBox="0 0 400 384" enable-background="new 0 0 400 384" xml:space="preserve">
  <path fill="#000000" opacity="1.000000" stroke="none" 
        d="M401.000000,1.500000 
           C396.339081,2.090671 391.678131,2.262625 387.017242,2.260155 
           C262.058594,2.193940 137.099930,2.112435 12.141288,2.002719 
           C10.335485,2.001133 8.530027,1.609339 6.362204,1.199830 
           C137.666672,1.000000 269.333344,1.000000 401.000000,1.500000 
        z"/>
  <path fill="#000000" opacity="1.000000" stroke="none" 
        d="M230.245407,107.516411 
           C246.506088,114.494545 258.620148,125.321930 266.387726,140.968338 
           C268.243744,144.707001 268.203247,147.405579 264.803741,150.004089 
           C262.065582,152.097107 260.240204,155.281433 256.283447,157.181854 
           C247.922638,135.749023 232.912598,122.236252 209.666687,119.643990 
           C197.732162,118.313118 186.502762,121.244057 176.319397,127.750740 
           C155.755112,140.890320 145.729996,168.725906 154.528687,188.988754 
           C158.950180,185.910004 161.406097,189.552994 163.955734,192.096054 
           C167.006866,195.139297 168.973297,194.662781 171.445618,191.313736 
           C181.733551,177.377563 192.202072,163.574326 202.663452,149.767105 
           C204.038620,147.952118 205.061966,145.755920 207.219757,144.639969 
           C209.383530,145.057510 210.096252,146.922699 211.109695,148.350250 
           C220.750534,161.930435 230.445114,175.475342 239.852051,189.216721 
           C242.149445,192.572647 244.108597,193.114563 247.569550,191.135910 
           C250.812103,189.282120 254.416702,188.061600 258.073883,186.470184 
           C261.037048,189.707733 263.772400,192.832458 266.662292,195.807083 
           C268.661713,197.865143 267.977783,200.008194 267.413910,202.316315 
           C259.353149,235.310349 243.231186,264.170685 222.201263,290.505066 
           C216.917084,297.122101 211.514526,303.649292 205.691803,309.192444 
           C203.943512,309.445221 203.261337,308.647583 202.636429,307.890259 
           C179.436295,279.773529 158.138474,250.458633 145.168060,215.954407 
           C139.194275,200.062744 136.024658,183.713318 136.634125,166.618073 
           C137.545929,141.041840 157.515549,114.910912 182.466324,106.544731 
           C198.472519,101.177734 214.175613,101.519463 230.245407,107.516411 
        z"/>
</svg>
